<?xml version="1.0" standalone="no"?>
<!DOCTYPE svg PUBLIC "-//W3C//DTD SVG 20010904//EN"
 "http://www.w3.org/TR/2001/REC-SVG-20010904/DTD/svg10.dtd">
<svg version="1.0" xmlns="http://www.w3.org/2000/svg"
 width="512.000000pt" height="512.000000pt" viewBox="0 0 512.000000 512.000000"
 preserveAspectRatio="xMidYMid meet">
<metadata>
Created by potrace 1.14, written by Peter Selinger 2001-2017
</metadata>
<g transform="translate(0.000000,512.000000) scale(0.100000,-0.100000)"
fill="#000000" stroke="none">
<path d="M859 4998 c-1 -40 -8 -92 -15 -128 -4 -19 -8 -40 -10 -47 -7 -38 -41
-125 -67 -173 -113 -210 -345 -396 -542 -436 -61 -12 -127 -23 -133 -23 -30 5
-62 -3 -62 -15 0 -9 14 -14 43 -14 266 -6 547 -190 690 -453 60 -109 89 -220
96 -358 2 -43 28 -5 29 45 9 225 167 488 380 630 113 76 271 131 385 135 47 2
76 12 61 22 -5 2 -37 7 -71 11 -97 10 -208 42 -286 83 -40 21 -73 41 -75 45
-2 5 -9 8 -16 8 -20 0 -164 138 -218 209 -92 122 -155 289 -159 421 -1 43 -6
60 -15 60 -8 0 -14 -10 -15 -22z"/>
<path d="M2320 4180 l0 -569 -62 -3 c-35 -2 -63 -7 -64 -13 -2 -47 -18 -116
-27 -123 -7 -6 -32 -13 -57 -17 -182 -28 -443 -135 -618 -252 -419 -281 -681
-713 -746 -1233 -8 -59 -8 -246 -1 -335 9 -106 50 -312 74 -370 5 -11 19 -47
31 -80 88 -232 264 -491 440 -645 35 -30 69 -61 76 -67 32 -32 214 -148 295
-188 184 -93 382 -154 564 -173 83 -9 335 -9 423 1 148 16 414 97 534 162 24
12 67 35 96 51 200 109 420 315 560 525 127 190 242 486 266 684 3 22 8 65 12
95 13 116 5 343 -17 455 -6 28 -12 61 -15 75 -34 174 -131 399 -249 575 -191
285 -447 494 -772 629 -98 41 -336 105 -365 98 -5 -1 -15 36 -34 126 -4 20
-10 22 -64 22 l-60 0 0 570 0 570 -110 0 -110 0 0 -570z m428 -875 c238 -48
508 -181 687 -339 102 -89 225 -223 225 -243 0 -6 -98 -9 -238 -9 -200 1 -241
3 -253 16 -8 9 -43 54 -79 100 -109 143 -326 375 -440 469 l-25 20 23 1 c13 0
58 -7 100 -15z m-392 -342 l-1 -248 -242 0 c-134 -1 -243 1 -243 3 0 4 53 71
105 132 61 73 365 371 373 366 4 -2 8 -116 8 -253z m195 226 c100 -93 242
-236 299 -300 70 -79 140 -165 140 -171 0 -6 -480 -5 -481 1 -5 23 -3 501 2
501 3 0 21 -14 40 -31z m-1012 -714 c-89 -168 -146 -343 -172 -522 l-12 -86
-185 1 c-280 1 -292 1 -287 10 3 4 8 38 12 75 3 37 8 78 11 90 2 12 7 38 10
57 15 96 68 250 129 375 l44 91 249 0 248 0 -47 -91z m817 -257 c0 -308 -2
-348 -15 -349 -23 0 -781 -1 -812 0 l-26 1 12 78 c32 195 113 409 218 572 l29
46 296 -1 297 0 1 -347z m1448 282 c60 -114 123 -293 140 -395 21 -125 26
-165 26 -197 0 -36 -2 -38 -32 -39 -48 0 -411 0 -426 0 -6 1 -11 4 -10 9 9 34
-47 292 -82 377 -4 11 -18 45 -30 75 -12 30 -42 93 -66 141 -24 47 -44 87 -44
90 0 3 110 5 245 5 l245 0 34 -66z m-1448 -1131 l0 -349 -311 0 -311 0 -42 73
c-105 184 -173 392 -187 571 l-4 54 428 0 427 1 0 -350z m997 291 c-7 -164
-80 -385 -191 -578 l-36 -62 -311 2 -310 3 -1 340 c0 187 1 343 3 347 2 4 193
6 426 5 l422 -2 -2 -55z m613 -18 c-14 -179 -71 -377 -155 -542 l-38 -75 -237
-3 -236 -2 40 80 c81 160 142 352 156 490 4 36 8 72 10 80 1 8 3 22 3 32 1 14
25 16 232 17 l231 0 -6 -77z m-2255 -844 c103 -140 231 -277 424 -456 l90 -83
-40 6 c-314 52 -618 207 -839 429 -73 72 -97 99 -145 159 -13 16 0 17 221 17
l235 0 54 -72z m645 -183 c0 -140 -3 -255 -6 -255 -11 0 -179 148 -261 230
-85 85 -239 260 -239 272 0 4 114 8 253 8 l253 0 0 -255z m653 238 c-114 -137
-249 -278 -370 -388 -57 -52 -122 -105 -129 -105 -3 0 -5 115 -5 255 l0 255
259 0 c246 0 258 -1 245 -17z"/>
<path d="M4049 4553 c0 -5 -2 -26 -5 -48 -16 -163 -78 -297 -193 -419 -123
-129 -269 -204 -436 -222 -93 -10 -91 -23 6 -30 134 -10 280 -79 395 -187 138
-128 210 -271 227 -446 5 -50 12 -70 21 -60 2 2 6 33 9 69 28 317 304 592 628
625 60 6 91 25 44 26 -17 0 -39 2 -50 4 -11 2 -40 6 -65 9 -56 8 -180 61 -244
105 -146 101 -249 244 -296 412 -11 41 -20 75 -20 77 1 61 -2 92 -10 92 -5 0
-10 -3 -11 -7z"/>
<path d="M380 3067 c0 -13 -7 -48 -16 -77 -42 -143 -190 -267 -326 -274 -37
-2 -48 -16 -12 -17 48 -1 73 -8 132 -36 110 -52 202 -175 218 -291 7 -58 13
-61 20 -10 10 64 24 104 52 148 73 114 187 185 301 189 33 1 21 11 -21 17
-159 23 -292 147 -327 305 -5 23 -8 46 -5 50 2 4 0 10 -6 14 -6 3 -10 -4 -10
-18z"/>
<path d="M4729 1944 c-1 -5 -3 -25 -5 -44 -19 -168 -184 -324 -349 -330 -40
-1 -15 -15 43 -24 84 -13 187 -81 241 -160 35 -50 72 -154 66 -185 -2 -11 0
-21 4 -21 5 0 12 21 16 48 22 153 162 297 314 321 69 11 72 17 10 24 -155 19
-304 166 -325 323 -6 47 -13 68 -15 48z"/>
</g>
</svg>
